<?xml version="1.0" encoding="iso-8859-1"?>
<!-- Generator: Adobe Illustrator 19.0.0, SVG Export Plug-In . SVG Version: 6.00 Build 0)  -->
<svg version="1.1" id="Layer_1" xmlns="http://www.w3.org/2000/svg" xmlns:xlink="http://www.w3.org/1999/xlink" x="0px" y="0px"
	 viewBox="0 0 503.466 503.466" style="enable-background:new 0 0 503.466 503.466;" xml:space="preserve">
<g transform="translate(9 1)">
	<path style="fill:#FFE079;" d="M89.133,404.333c3.413-1.707,69.973-33.28,153.6-8.533c59.733,17.92,153.6-8.533,153.6-8.533
		l1.707-0.853c4.267,13.653,6.827,28.16,6.827,43.52v34.133H80.6v-34.133c0-9.387,0.853-17.92,2.56-26.453L89.133,404.333z"/>
	<path style="fill:#ECF4F7;" d="M398.04,386.413l-1.707,0.853c0,0-93.867,26.453-153.6,8.533
		c-83.627-24.747-150.187,6.827-153.6,8.533l-5.973-0.853c11.947-65.707,67.413-110.933,116.907-135.68l42.667-17.067
		C293.933,265.24,375,310.466,398.04,386.413z M404.867,37.4v34.133c0,80.213-63.147,134.827-119.467,162.133l-42.667,17.067
		C183,233.666,80.6,173.933,80.6,71.533V37.4H404.867z"/>
	<path style="fill:#AAB1BA;" d="M421.933,472.6v17.067c0,4.267-3.413,8.533-8.533,8.533H72.067c-4.267,0-8.533-4.267-8.533-8.533
		V472.6c0-4.267,4.267-8.533,8.533-8.533H80.6h324.267h8.533C418.52,464.066,421.933,468.333,421.933,472.6z M421.933,11.8v17.067
		c0,4.267-3.413,8.533-8.533,8.533h-8.533H80.6h-8.533c-4.267,0-8.533-4.267-8.533-8.533V11.8c0-4.267,4.267-8.533,8.533-8.533
		H413.4C418.52,3.266,421.933,7.533,421.933,11.8z"/>
</g>
<path style="fill:#51565F;" d="M422.4,503.466H81.067c-6.827,0-12.8-5.973-12.8-12.8V473.6c0-6.827,5.973-12.8,12.8-12.8h4.267
	v-29.867c0-95.573,85.333-147.627,121.173-166.4c1.707-0.853,4.267,0,5.973,1.707c0.853,1.707,0,4.267-1.707,5.973
	c-34.987,17.067-116.907,67.413-116.907,158.72V460.8h285.867c2.56,0,4.267,1.707,4.267,4.267c0,2.56-1.707,4.267-4.267,4.267
	H81.067c-2.56,0-4.267,1.707-4.267,4.267v17.067c0,2.56,1.707,4.267,4.267,4.267H422.4c2.56,0,4.267-1.707,4.267-4.267V473.6
	c0-2.56-1.707-4.267-4.267-4.267h-8.533c-2.56,0-4.267-1.707-4.267-4.267v-34.133c0-102.4-104.107-159.573-158.72-174.933
	C193.707,239.787,85.333,180.053,85.333,72.533V42.667h-4.267c-6.827,0-12.8-5.973-12.8-12.8V12.8c0-6.827,5.973-12.8,12.8-12.8
	H422.4c6.827,0,12.8,5.973,12.8,12.8v17.067c0,6.827-5.973,12.8-12.8,12.8h-4.267v29.867c0,95.573-85.333,147.627-122.027,166.4
	c-1.707,0.853-4.267,0-5.973-1.707c-0.853-1.707,0-4.267,1.707-5.973c34.987-17.067,116.907-67.413,116.907-158.72V42.666H123.733
	c-2.56,0-4.267-1.707-4.267-4.267c0-2.56,1.707-4.267,4.267-4.267H422.4c2.56,0,4.267-1.707,4.267-4.267V12.8
	c0-2.56-1.707-4.267-4.267-4.267H81.067c-2.56,0-4.267,1.707-4.267,4.267v17.067c0,2.56,1.707,4.267,4.267,4.267H89.6
	c2.56,0,4.267,1.707,4.267,4.267v34.133c0,102.4,104.107,159.573,158.72,174.933c57.173,16.213,165.547,75.947,165.547,183.467
	V460.8h4.267c6.827,0,12.8,5.973,12.8,12.8v17.067C435.2,497.493,429.227,503.466,422.4,503.466z M311.467,408.746
	c-19.627,0-40.96-1.707-61.44-7.68c-58.027-16.213-125.44,0-125.44,0c-2.56,0.853-4.267-0.853-5.12-3.413
	c-0.853-2.56,0.853-4.267,3.413-5.12c2.56-0.853,69.973-17.067,130.56,0c58.027,16.213,125.44,0,125.44,0
	c2.56-0.853,4.267,0.853,5.12,3.413c0.853,2.56-0.853,4.267-3.413,5.12C378.88,401.066,349.013,408.746,311.467,408.746z
	 M251.733,349.866c-6.827,0-12.8-5.973-12.8-12.8c0-6.827,5.973-12.8,12.8-12.8s12.8,5.973,12.8,12.8
	C264.533,343.893,258.56,349.866,251.733,349.866z M251.733,332.8c-2.56,0-4.267,1.707-4.267,4.267c0,2.56,1.707,4.267,4.267,4.267
	s4.267-1.707,4.267-4.267C256,334.507,254.293,332.8,251.733,332.8z M251.733,307.2c-6.827,0-12.8-5.973-12.8-12.8
	s5.973-12.8,12.8-12.8s12.8,5.973,12.8,12.8S258.56,307.2,251.733,307.2z M251.733,290.133c-2.56,0-4.267,1.707-4.267,4.267
	s1.707,4.267,4.267,4.267S256,296.96,256,294.4S254.293,290.133,251.733,290.133z M260.267,196.266c-2.56,0-4.267-1.707-4.267-4.267
	v-4.267c-14.507-1.707-25.6-14.507-25.6-29.867c0-2.56,1.707-4.267,4.267-4.267s4.267,1.707,4.267,4.267
	c0,11.947,9.387,21.333,21.333,21.333c11.947,0,21.333-9.387,21.333-21.333c0-11.947-9.387-21.333-21.333-21.333
	c-16.213,0-29.867-13.653-29.867-29.867c0-15.36,11.093-27.307,25.6-29.867v-4.267c0-2.56,1.707-4.267,4.267-4.267
	s4.267,1.707,4.267,4.267V76.8c14.507,1.707,25.6,14.507,25.6,29.867c0,2.56-1.707,4.267-4.267,4.267s-4.267-1.707-4.267-4.267
	c0-11.947-9.387-21.333-21.333-21.333c-11.947,0-21.333,9.387-21.333,21.333S248.32,128,260.267,128
	c16.213,0,29.867,13.653,29.867,29.867c0,15.36-11.093,27.307-25.6,29.867V192C264.533,194.56,262.827,196.266,260.267,196.266z"/>
<g>
</g>
<g>
</g>
<g>
</g>
<g>
</g>
<g>
</g>
<g>
</g>
<g>
</g>
<g>
</g>
<g>
</g>
<g>
</g>
<g>
</g>
<g>
</g>
<g>
</g>
<g>
</g>
<g>
</g>
</svg>
